Coordinates
version=1
nRows=27
nColumns=38
inDegrees=no

Units are S.I. units (second, meters, Newtons, ...)
If the header above contains a line with 'inDegrees', this indicates whether rotational values are in degrees (yes) or radians (no).

endheader
time	pelvis_tilt	pelvis_list	pelvis_rotation	pelvis_tx	pelvis_ty	pelvis_tz	hip_flexion_r	hip_adduction_r	hip_rotation_r	knee_angle_r	ankle_angle_r	subtalar_angle_r	mtp_angle_r	hip_flexion_l	hip_adduction_l	hip_rotation_l	knee_angle_l	ankle_angle_l	subtalar_angle_l	mtp_angle_l	lumbar_extension	lumbar_bending	lumbar_rotation	arm_flex_r	arm_add_r	arm_rot_r	elbow_flex_r	pro_sup_r	wrist_flex_r	wrist_dev_r	arm_flex_l	arm_add_l	arm_rot_l	elbow_flex_l	pro_sup_l	wrist_flex_l	wrist_dev_l
15	1.21573	1.44265	0.363122	0.757583	-0.607822	0.979988	0.09961	0.110276	-0.291983	0.269042	0.0575507	0	0	-0.0599662	-0.122367	-0.136606	0.0702188	0.0753611	0	0	-0.0687478	0.167975	-0.0540585	0.1494	-0.274255	0.0844671	1.76771	1.5708	0	0	0.274124	-0.197556	0.0358558	1.62252	0.838003	0	0
15.01	1.27144	1.43523	0.302367	0.757693	-0.606239	0.979533	0.0903759	0.121685	-0.286195	0.263656	0.057132	0	0	-0.0697222	-0.12725	-0.110969	0.0738938	0.0834207	0	0	-0.0727999	0.17763	-0.0470765	0.135191	-0.277991	0.0799776	1.7849	1.5708	0	0	0.262395	-0.197281	0.0347599	1.63969	0.839332	0	0
15.02	1.26571	1.43403	0.310184	0.756956	-0.605983	0.979291	0.0909392	0.121739	-0.287486	0.262799	0.0573516	0	0	-0.0699952	-0.127123	-0.109218	0.0708022	0.0834927	0	0	-0.0728417	0.178465	-0.0479459	0.12254	-0.278847	0.0748267	1.79835	1.5708	0	0	0.253219	-0.197792	0.0336987	1.65355	0.842264	0	0
15.03	1.2601	1.43271	0.317803	0.756231	-0.605731	0.979009	0.0912219	0.122158	-0.288402	0.261454	0.0577168	0	0	-0.0701986	-0.127148	-0.107631	0.067861	0.0839189	0	0	-0.0730001	0.179452	-0.0486662	0.109664	-0.279708	0.069384	1.81237	1.5708	0	0	0.243835	-0.198983	0.0340456	1.66731	0.842994	0	0
15.04	1.25404	1.43146	0.325707	0.755523	-0.605492	0.978695	0.0915681	0.122509	-0.289189	0.260229	0.0585961	0	0	-0.0702963	-0.127094	-0.106675	0.0650762	0.0845902	0	0	-0.0731772	0.180316	-0.049288	0.0967322	-0.280584	0.0638285	1.82634	1.5708	0	0	0.234525	-0.200215	0.0352234	1.68053	0.841795	0	0
15.05	1.24797	1.43034	0.333464	0.754819	-0.605276	0.978362	0.0919364	0.122695	-0.290028	0.259078	0.0596944	0	0	-0.0703504	-0.126962	-0.106675	0.0624354	0.0852556	0	0	-0.0735911	0.180992	-0.0494305	0.0828675	-0.281542	0.0575063	1.8415	1.5708	0	0	0.225657	-0.201033	0.0359277	1.69387	0.840235	0	0
15.06	1.23937	1.42939	0.343454	0.75413	-0.605095	0.977997	0.0926794	0.122565	-0.290855	0.258046	0.0610974	0	0	-0.0700224	-0.12656	-0.107555	0.0599168	0.0860538	0	0	-0.0738124	0.181398	-0.0494431	0.0689874	-0.282435	0.0515442	1.85656	1.5708	0	0	0.216588	-0.201708	0.0359686	1.70726	0.838849	0	0
15.07	1.22959	1.42832	0.354263	0.753475	-0.604962	0.977595	0.0937669	0.122413	-0.29221	0.257203	0.0625466	0	0	-0.0694586	-0.126199	-0.108616	0.0574662	0.0869706	0	0	-0.074022	0.181802	-0.0489968	0.0549999	-0.283174	0.044745	1.87132	1.5708	0	0	0.207447	-0.202269	0.0359185	1.72105	0.837691	0	0
15.08	1.221	1.42711	0.364058	0.752807	-0.604849	0.977177	0.0947053	0.1224	-0.294505	0.256086	0.0634352	0	0	-0.0690323	-0.126022	-0.108947	0.0549782	0.0882576	0	0	-0.0743579	0.182415	-0.048694	0.0411615	-0.28386	0.0380873	1.88567	1.5708	0	0	0.198284	-0.202644	0.0357055	1.73522	0.836606	0	0
15.09	1.21421	1.42621	0.372754	0.752061	-0.604706	0.976729	0.0947477	0.12254	-0.294628	0.253941	0.0643145	0	0	-0.0692097	-0.125533	-0.107626	0.0518892	0.0893506	0	0	-0.0749342	0.182861	-0.0491143	0.0269254	-0.284579	0.0310821	1.90015	1.5708	0	0	0.188903	-0.20283	0.0351357	1.74986	0.835134	0	0
15.1	1.20718	1.42524	0.381593	0.751319	-0.604594	0.976276	0.0947823	0.122713	-0.294888	0.251659	0.0656642	0	0	-0.0693896	-0.12512	-0.106031	0.0487283	0.0905798	0	0	-0.0754446	0.183308	-0.0495766	0.0129388	-0.285386	0.0241369	1.91412	1.5708	0	0	0.179686	-0.202335	0.0341902	1.76408	0.833913	0	0
15.11	1.19825	1.42427	0.391587	0.75065	-0.6045	0.975814	0.0951226	0.122766	-0.295084	0.249497	0.0674895	0	0	-0.0693952	-0.124635	-0.105125	0.0454692	0.0919004	0	0	-0.0756264	0.183528	-0.0495767	-0.000527328	-0.286342	0.0178426	1.92722	1.5708	0	0	0.170232	-0.201701	0.0330719	1.77778	0.833217	0	0
15.12	1.188	1.42318	0.402625	0.749998	-0.604445	0.975318	0.0957042	0.1228	-0.295627	0.247198	0.069126	0	0	-0.0689368	-0.124207	-0.10446	0.042678	0.0936851	0	0	-0.0755622	0.183754	-0.0495731	-0.0134379	-0.28737	0.0117492	1.9395	1.5708	0	0	0.16077	-0.200947	0.0320828	1.7912	0.832483	0	0
15.13	1.1764	1.42215	0.414594	0.749378	-0.604442	0.974779	0.0962919	0.122819	-0.295269	0.244405	0.0706416	0	0	-0.068226	-0.123575	-0.103497	0.0399063	0.0948073	0	0	-0.0754243	0.18377	-0.0493836	-0.0257018	-0.288594	0.0059663	1.95124	1.5708	0	0	0.151386	-0.199888	0.0307195	1.80445	0.832081	0	0
15.14	1.1649	1.42152	0.425953	0.748791	-0.604478	0.974224	0.096692	0.1224	-0.294235	0.241744	0.0726447	0	0	-0.0677711	-0.122501	-0.102821	0.0371191	0.0959589	0	0	-0.0755681	0.183276	-0.0486952	-0.0379161	-0.290568	0.000592854	1.96302	1.5708	0	0	0.142275	-0.198705	0.0291813	1.8176	0.832646	0	0
15.15	1.1022	1.42958	0.487984	0.748447	-0.604358	0.972569	0.10157	0.105053	-0.307062	0.24686	0.0878523	0	0	-0.0648013	-0.109293	-0.100913	0.0337573	0.0972773	0	0	-0.0710853	0.169176	-0.0489366	-0.0514306	-0.289927	-0.00431955	1.97501	1.5708	0	0	0.132674	-0.201694	0.0287467	1.83436	0.832725	0	0
15.16	1.14875	1.42171	0.441456	0.747588	-0.604642	0.973179	0.0949663	0.120473	-0.292293	0.234741	0.0768571	0	0	-0.0690207	-0.119234	-0.101637	0.0307964	0.0975271	0	0	-0.0776587	0.181337	-0.0470555	-0.0612567	-0.295422	-0.009539	1.98586	1.5708	0	0	0.124627	-0.196227	0.0267326	1.84316	0.833986	0	0
15.17	1.08462	1.43019	0.504095	0.747301	-0.604563	0.971501	0.0989331	0.103048	-0.304153	0.23842	0.0920966	0	0	-0.0668918	-0.105462	-0.0999351	0.0266405	0.0987115	0	0	-0.0734476	0.166649	-0.0467928	-0.0740803	-0.295281	-0.0134601	1.99753	1.5708	0	0	0.115683	-0.199057	0.0266594	1.85831	0.834108	0	0
15.18	1.13281	1.42276	0.454962	0.74654	-0.604914	0.972106	0.0913046	0.118574	-0.288462	0.224708	0.0805819	0	0	-0.0717157	-0.115167	-0.101292	0.0233208	0.0993927	0	0	-0.0802853	0.178381	-0.0438814	-0.0833053	-0.301179	-0.0182683	2.00759	1.5708	0	0	0.108564	-0.193906	0.0250053	1.86633	0.834993	0	0
15.19	1.12473	1.42325	0.460944	0.746085	-0.605145	0.971576	0.0896851	0.117717	-0.286453	0.219759	0.0821309	0	0	-0.0729815	-0.113231	-0.102143	0.0198197	0.100515	0	0	-0.0816721	0.176798	-0.0410713	-0.0943037	-0.304332	-0.0228687	2.01779	1.5708	0	0	0.101236	-0.192906	0.0249005	1.87754	0.835081	0	0
15.2	1.12162	1.42336	0.462029	0.745631	-0.605364	0.971119	0.0871419	0.117689	-0.284957	0.213916	0.0830468	0	0	-0.0747079	-0.1121	-0.102622	0.0164514	0.101536	0	0	-0.0833189	0.175892	-0.0382872	-0.105042	-0.307095	-0.028112	2.02677	1.5708	0	0	0.0941867	-0.191567	0.0248228	1.88779	0.835646	0	0
15.21	1.12209	1.42315	0.459233	0.745227	-0.605618	0.970724	0.0841654	0.118218	-0.283453	0.207818	0.0833776	0	0	-0.0767947	-0.111575	-0.102779	0.0130989	0.102133	0	0	-0.0846228	0.175751	-0.0380109	-0.100475	-0.311791	0.00516842	2.06665	1.5708	0	0	0.0847651	-0.190232	0.0210736	1.89862	0.836063	0	0
15.22	1.12059	1.42266	0.458311	0.744848	-0.605922	0.970376	0.0817429	0.118849	-0.281553	0.201951	0.0830692	0	0	-0.0782563	-0.111249	-0.102907	0.010105	0.10274	0	0	-0.0867664	0.175047	-0.0324545	-0.125663	-0.312063	-0.0359688	2.04525	1.5708	0	0	0.07922	-0.188308	0.0228478	1.90776	0.835711	0	0
15.23	1.11916	1.42217	0.45714	0.744494	-0.606309	0.97008	0.0799308	0.119583	-0.279278	0.196877	0.0823169	0	0	-0.0794044	-0.110956	-0.1034	0.00746025	0.10286	0	0	-0.0881776	0.174441	-0.0295677	-0.135976	-0.313895	-0.0395149	2.05424	1.5708	0	0	0.0718148	-0.186973	0.0218933	1.91737	0.835812	0	0
15.24	1.1174	1.42152	0.456274	0.74415	-0.606737	0.969838	0.0789913	0.120148	-0.277256	0.193136	0.0817719	0	0	-0.0800383	-0.110785	-0.104252	0.00543885	0.10307	0	0	-0.0894033	0.173833	-0.0267575	-0.146271	-0.315121	-0.0430941	2.0632	1.5708	0	0	0.0643761	-0.185313	0.0203181	1.92667	0.836283	0	0
15.25	1.05784	1.42452	0.519677	0.743204	-0.608477	0.969907	0.0886226	0.111014	-0.281572	0.195024	0.0822138	0	0	-0.0723893	-0.106532	-0.119784	0	0.094374	0	0	-0.0861316	0.165515	-0.0318286	-0.153853	-0.313071	-0.0457288	2.0672	1.5708	0	0	0.0589476	-0.184751	0.0175441	1.93282	0.836789	0	0
15.26	1.11392	1.4193	0.454957	0.743507	-0.607659	0.969578	0.0786893	0.121676	-0.27369	0.187762	0.080272	0	0	-0.079431	-0.111328	-0.106629	0.00379557	0.10482	0	0	-0.0915513	0.173206	-0.0218101	-0.166892	-0.316487	-0.0503906	2.07962	1.5708	0	0	0.049779	-0.18136	0.0157282	1.94309	0.836824	0	0
